<?xml version="1.0" standalone="no"?>
<!DOCTYPE svg PUBLIC "-//W3C//DTD SVG 20010904//EN"
 "http://www.w3.org/TR/2001/REC-SVG-20010904/DTD/svg10.dtd">
<svg version="1.0" xmlns="http://www.w3.org/2000/svg"
 width="1045.000000pt" height="482.000000pt" viewBox="0 0 1045.000000 482.000000"
 preserveAspectRatio="xMidYMid meet">
<metadata>
Created by potrace 1.16, written by Peter Selinger 2001-2019
</metadata>
<g transform="translate(0.000000,482.000000) scale(0.100000,-0.100000)"
fill="#000000" stroke="none">
<path d="M2990 4345 c-63 -7 -131 -19 -151 -28 -68 -28 -72 -84 -29 -391 23
-168 243 -2094 266 -2331 15 -155 32 -235 58 -270 13 -18 25 -20 124 -18 126
2 180 14 219 47 25 21 28 31 28 83 0 32 -6 110 -13 173 -7 63 -30 313 -52 555
-22 242 -63 681 -90 975 -27 294 -59 643 -70 775 -25 305 -37 381 -64 411 -28
31 -82 35 -226 19z"/>
<path d="M7253 4345 c-43 -19 -59 -55 -67 -155 -4 -47 -13 -152 -21 -235 -15
-154 -30 -319 -160 -1734 -75 -816 -76 -825 -57 -850 28 -39 56 -48 184 -62
104 -11 121 -11 151 3 19 9 39 29 45 45 6 15 32 210 57 433 96 860 147 1307
185 1620 87 720 98 852 71 884 -19 23 -64 34 -196 51 -145 18 -151 18 -192 0z"/>
<path d="M2394 4275 c-105 -14 -146 -28 -178 -64 -23 -25 -19 -85 25 -366 16
-104 61 -417 99 -695 88 -628 236 -1666 254 -1779 21 -131 48 -146 218 -120
161 24 188 40 188 115 0 42 -52 487 -145 1249 -19 154 -62 519 -95 810 -86
763 -98 832 -140 855 -24 13 -99 11 -226 -5z"/>
<path d="M7818 4275 c-34 -19 -53 -98 -74 -304 -8 -80 -23 -218 -34 -306 -127
-1038 -259 -2157 -267 -2256 -10 -125 8 -139 205 -160 118 -12 123 -12 150 8
15 11 32 37 39 59 6 21 44 273 83 559 77 554 165 1175 254 1785 69 476 73 548
32 575 -28 19 -236 55 -311 54 -27 0 -62 -6 -77 -14z"/>
<path d="M1900 4203 c-283 -46 -286 -49 -269 -200 5 -48 18 -133 29 -188 11
-55 46 -260 79 -455 33 -195 101 -598 151 -895 145 -862 209 -1228 220 -1253
6 -13 26 -30 47 -38 32 -14 46 -14 137 1 172 28 206 49 206 123 0 15 -36 268
-80 562 -43 294 -90 614 -105 710 -14 96 -30 202 -35 235 -6 33 -44 299 -85
590 -100 707 -109 759 -146 796 -19 19 -79 24 -149 12z"/>
<path d="M8398 4194 c-38 -20 -52 -76 -87 -346 -11 -84 -48 -335 -81 -558 -34
-223 -68 -450 -75 -505 -7 -55 -34 -235 -59 -400 -71 -470 -156 -1071 -156
-1103 0 -32 41 -76 80 -85 14 -3 71 -13 128 -21 89 -14 108 -14 137 -2 55 24
30 -97 240 1151 58 347 135 794 170 995 119 673 130 763 105 810 -13 24 -54
38 -185 61 -131 22 -181 23 -217 3z"/>
<path d="M1319 3720 c-122 -23 -133 -26 -169 -57 -22 -18 -30 -33 -30 -58 0
-32 156 -835 336 -1735 68 -339 77 -377 100 -397 30 -28 64 -29 189 -8 163 28
185 43 185 126 0 26 -43 287 -95 581 -51 293 -124 708 -160 922 -89 531 -103
594 -136 627 -24 24 -87 24 -220 -1z"/>
<path d="M8903 3725 c-30 -21 -35 -43 -93 -375 -28 -162 -93 -536 -145 -830
-163 -928 -165 -940 -150 -977 17 -41 34 -49 157 -73 140 -27 183 -26 213 4
30 30 24 3 150 651 58 303 140 714 181 914 118 578 121 606 60 638 -41 22
-238 63 -301 63 -29 0 -60 -6 -72 -15z"/>
<path d="M3464 3063 c3 -21 13 -129 23 -240 17 -201 17 -203 40 -203 32 0 82
22 132 58 54 39 102 49 296 62 553 36 1270 48 1865 31 699 -20 942 -47 986
-110 14 -20 70 -41 109 -41 20 0 22 11 38 203 10 111 20 219 23 240 l6 37 -50
0 c-35 0 -70 -9 -117 -32 l-67 -31 -152 6 c-83 4 -232 11 -331 17 -724 40
-1442 38 -2168 -5 -369 -22 -402 -21 -479 15 -43 20 -78 30 -111 30 l-49 0 6
-37z"/>
<path d="M975 2639 c-418 -90 -475 -107 -475 -143 0 -21 39 -187 52 -219 6
-15 20 -30 33 -33 12 -3 80 8 151 25 71 17 215 49 319 71 104 23 190 42 191
43 1 1 -12 68 -29 150 -24 116 -34 147 -46 146 -9 -1 -97 -18 -196 -40z"/>
<path d="M9225 2543 c-15 -76 -30 -143 -32 -150 -3 -7 17 -16 54 -23 32 -7
137 -30 233 -52 96 -21 214 -48 263 -59 100 -22 131 -18 146 19 21 53 52 212
46 232 -4 13 -23 25 -58 35 -50 14 -515 117 -588 130 l-35 7 -29 -139z"/>
<path d="M2905 997 c-96 -44 -140 -165 -96 -262 39 -87 117 -119 276 -113 l90
3 0 105 0 105 -33 5 -33 5 41 58 41 57 -48 22 c-60 27 -193 35 -238 15z"/>
<path d="M3910 819 l0 -191 141 4 140 3 40 42 c36 39 39 47 39 99 0 68 -19
104 -72 134 -28 16 -51 21 -84 18 l-44 -3 0 42 0 43 -80 0 -80 0 0 -191z"/>
<path d="M4990 820 l0 -190 80 0 80 0 0 100 c0 93 1 100 20 100 19 0 20 -7 20
-100 l0 -100 80 0 80 0 0 100 c0 110 -13 157 -51 184 -29 20 -85 21 -121 2
l-28 -15 0 55 0 54 -80 0 -80 0 0 -190z"/>
<path d="M5570 820 l0 -190 85 0 85 0 0 54 0 55 53 3 52 3 0 50 0 50 -52 3
c-49 3 -53 5 -53 28 0 23 2 24 70 24 l70 0 0 55 0 55 -155 0 -155 0 0 -190z"/>
<path d="M5980 996 c-18 -22 -8 -59 20 -74 24 -13 22 -13 -20 -9 -25 3 -53 8
-62 12 -17 7 -18 -4 -18 -144 l0 -151 80 0 80 0 0 151 c0 117 -3 149 -12 143
-10 -6 -10 -4 0 7 15 17 16 51 0 67 -16 16 -53 15 -68 -2z"/>
<path d="M6176 926 c-99 -78 -106 -86 -79 -86 30 0 30 0 35 -68 6 -82 25 -115
79 -136 49 -20 70 -20 114 -2 34 15 35 16 35 75 l0 61 -26 -12 c-31 -14 -44 0
-44 50 0 30 2 32 35 32 35 0 35 0 35 45 0 45 0 45 -34 45 -34 0 -35 2 -38 41
l-3 40 -109 -85z"/>
<path d="M3279 906 c-48 -33 -73 -86 -66 -144 9 -79 63 -130 148 -138 44 -5
62 -1 98 18 105 56 110 206 9 268 -49 30 -142 28 -189 -4z"/>
<path d="M3580 775 l0 -155 80 0 80 0 0 78 c0 90 8 109 38 93 55 -30 112 3
112 64 0 68 -68 98 -124 54 l-26 -20 0 20 c0 20 -6 21 -80 21 l-80 0 0 -155z"/>
<path d="M4358 913 l-48 -16 0 -50 c0 -43 2 -48 18 -42 34 13 72 17 97 11 40
-10 29 -26 -19 -26 -61 0 -98 -31 -98 -83 0 -64 55 -100 117 -77 20 8 30 8 35
0 4 -7 35 -10 81 -8 l74 3 3 100 c3 118 -12 160 -68 187 -44 22 -128 22 -192
1z"/>
<path d="M4732 910 c-88 -54 -97 -175 -20 -248 34 -31 122 -48 185 -36 l48 9
3 66 3 66 -63 -1 c-50 -1 -63 2 -63 14 0 16 60 19 103 5 21 -7 22 -5 22 59 0
62 -2 67 -26 76 -46 18 -155 12 -192 -10z"/>
<path d="M6392 778 l3 -153 78 -3 77 -3 0 106 c0 105 0 106 23 103 21 -3 22
-8 25 -105 l3 -103 74 0 75 0 0 115 c0 81 -4 124 -14 144 -26 49 -98 66 -156
36 -27 -14 -30 -14 -30 0 0 12 -15 15 -80 15 l-81 0 3 -152z"/>
<path d="M6853 910 c-64 -39 -87 -141 -47 -211 47 -82 185 -104 263 -41 38 31
55 82 27 82 -8 0 -18 -4 -21 -10 -10 -16 -91 -12 -105 5 -10 12 -1 15 62 17
l73 3 -3 35 c-5 47 -31 90 -72 117 -44 30 -131 32 -177 3z"/>
<path d="M7178 915 c-78 -44 -57 -137 37 -168 22 -8 40 -20 40 -28 0 -23 -36
-22 -67 1 -17 12 -33 18 -37 14 -12 -14 -34 -74 -29 -79 8 -9 123 -35 153 -35
85 0 145 43 145 105 0 40 -39 82 -86 91 -18 3 -38 12 -44 19 -17 21 17 27 52
9 16 -8 31 -14 33 -12 1 2 10 18 20 37 12 24 14 36 6 44 -19 19 -191 20 -223
2z"/>
<path d="M7500 923 c-34 -13 -60 -47 -60 -80 0 -51 14 -68 75 -93 54 -22 67
-41 30 -48 -9 -2 -31 6 -46 17 -35 26 -44 22 -59 -25 -15 -44 -11 -48 77 -64
127 -24 213 16 213 101 0 30 -51 76 -98 89 -23 6 -42 15 -42 21 0 18 28 20 60
4 18 -9 33 -15 35 -13 5 6 35 67 35 72 0 20 -175 35 -220 19z"/>
</g>
</svg>
