<?xml version="1.0" standalone="no"?>
<!DOCTYPE svg PUBLIC "-//W3C//DTD SVG 20010904//EN"
 "http://www.w3.org/TR/2001/REC-SVG-20010904/DTD/svg10.dtd">
<svg version="1.0" xmlns="http://www.w3.org/2000/svg"
 width="178.000000pt" height="174.000000pt" viewBox="0 0 178.000000 174.000000"
 preserveAspectRatio="xMidYMid meet">
<metadata>
Created by potrace 1.10, written by Peter Selinger 2001-2011
</metadata>
<g transform="translate(0.000000,174.000000) scale(0.100000,-0.100000)"
fill="#000000" stroke="none">
<path d="M1250 1723 c-8 -3 -264 -124 -568 -269 -304 -145 -559 -264 -567
-264 -22 0 -77 -52 -91 -87 -11 -25 -14 -106 -14 -363 0 -363 2 -374 59 -423
l33 -27 454 0 454 0 -11 -26 c-16 -43 9 -71 71 -79 50 -7 50 -7 50 -44 0 -72
41 -97 111 -67 34 15 34 14 70 -25 52 -56 76 -52 131 24 12 17 16 17 50 2 73
-30 101 -15 112 60 5 33 12 45 24 45 9 0 34 5 54 11 47 13 57 42 33 101 -16
40 -16 43 2 55 83 61 83 90 3 146 -24 16 -24 17 -7 52 34 72 18 104 -57 112
l-45 5 -8 51 c-6 40 -14 54 -32 64 -19 9 -25 20 -25 45 0 30 5 36 60 64 69 36
104 80 104 135 0 28 -37 116 -141 336 -78 164 -151 309 -163 321 -40 44 -99
62 -146 45z m79 -58 c17 -8 38 -35 54 -67 186 -389 267 -563 267 -575 0 -26
-20 -53 -60 -78 -22 -14 -43 -25 -47 -25 -5 0 -8 40 -8 88 0 55 -5 95 -12 103
-7 8 -11 24 -11 35 1 10 -32 90 -74 177 l-77 157 -54 -6 c-59 -7 -101 10 -112
47 -4 10 -15 19 -26 19 -11 0 -185 -79 -387 -175 l-366 -175 -80 1 -81 0 60
28 c33 16 256 122 495 236 443 211 469 223 483 224 4 1 21 -6 36 -14z m-148
-191 c22 -27 66 -44 113 -44 42 0 46 -2 68 -42 35 -65 101 -208 97 -212 -2 -2
-31 -1 -64 3 -55 6 -60 8 -58 29 4 29 -21 78 -46 92 -61 32 -141 -17 -141 -86
0 -34 -1 -34 -45 -34 -32 0 -45 4 -45 14 0 29 -52 75 -108 96 -103 39 -235 2
-272 -77 -15 -32 -16 -33 -83 -33 -48 0 -67 4 -65 12 5 13 595 297 619 298 9
0 22 -7 30 -16z m97 -210 c14 -10 22 -25 22 -45 0 -29 -1 -29 -55 -29 -54 0
-55 0 -55 29 0 29 29 61 55 61 6 0 21 -7 33 -16z m-298 -30 c28 -15 50 -31 50
-36 0 -4 -75 -8 -166 -8 -150 0 -165 2 -153 16 14 17 59 42 99 55 41 14 118 2
170 -27z m453 -106 c43 -23 46 -36 47 -205 0 -146 -2 -162 -17 -165 -31 -6
-53 34 -53 99 0 64 -11 83 -48 83 -30 0 -82 52 -82 82 0 13 -5 29 -12 36 -18
18 -987 17 -992 0 -3 -7 -7 -26 -11 -41 -8 -38 -48 -77 -79 -77 -51 0 -56 -17
-56 -200 0 -183 5 -200 56 -200 31 0 71 -39 79 -77 4 -15 8 -34 11 -40 3 -10
78 -13 332 -13 l329 0 39 -35 39 -36 -454 3 -453 3 -19 24 c-18 22 -19 44 -19
373 l0 349 25 24 24 25 646 0 c472 0 652 -3 668 -12z m-184 -137 c21 -41 68
-85 101 -96 16 -5 20 -15 20 -46 0 -21 -4 -39 -9 -39 -5 0 -27 -15 -50 -34
-38 -32 -43 -33 -81 -24 -49 13 -85 -6 -95 -51 -7 -33 -19 -45 -55 -56 -50
-15 -61 -33 -54 -94 5 -53 4 -58 -23 -81 l-28 -25 -330 5 -330 5 -14 30 c-19
42 -48 71 -87 90 l-34 16 0 149 0 149 36 17 c33 16 84 70 84 90 0 32 24 34
477 34 l453 0 19 -39z m217 -285 c22 6 46 14 55 18 13 6 17 -2 22 -40 6 -55
20 -69 82 -78 l43 -7 -20 -45 c-18 -42 -18 -47 -4 -69 9 -14 27 -32 41 -41 32
-21 31 -25 -4 -49 -46 -30 -54 -57 -32 -109 l19 -44 -48 -6 c-57 -8 -71 -22
-78 -81 -5 -50 -6 -50 -42 -30 -50 29 -85 18 -125 -38 l-16 -22 -30 38 c-35
41 -69 48 -119 22 -25 -13 -29 -13 -34 1 -3 9 -6 28 -6 42 0 15 -4 32 -8 39
-10 15 -57 33 -89 33 -20 0 -24 3 -18 18 4 9 13 34 19 56 11 38 10 39 -31 75
l-42 36 34 24 c44 30 53 62 31 108 -9 20 -15 37 -13 40 3 2 22 7 43 10 52 8
70 26 77 74 3 22 8 43 10 46 3 2 19 -3 36 -11 50 -26 76 -21 108 23 l28 40 36
-42 c36 -41 37 -42 75 -31z"/>
<path d="M681 993 c-53 -19 -125 -88 -151 -146 -22 -47 -26 -131 -10 -189 18
-62 69 -119 140 -156 58 -30 71 -34 125 -29 72 5 127 31 176 84 59 61 74 98
74 183 0 87 -20 132 -82 192 -76 73 -174 95 -272 61z m201 -55 c119 -66 155
-225 74 -330 -82 -108 -226 -126 -325 -41 -58 49 -81 99 -81 173 0 70 21 118
72 167 68 66 175 78 260 31z"/>
<path d="M760 902 c0 -10 -12 -22 -29 -29 -72 -27 -77 -103 -8 -136 34 -17 37
-22 37 -59 0 -39 -1 -40 -27 -34 -52 12 -58 11 -58 -9 0 -15 10 -22 43 -29 30
-7 42 -15 42 -28 0 -10 7 -18 15 -18 8 0 15 9 15 20 0 13 7 20 20 20 31 0 70
44 70 79 0 32 -39 71 -71 71 -16 0 -19 8 -19 46 l0 46 34 -6 c22 -4 37 -2 42
5 9 15 -23 39 -53 39 -16 0 -23 6 -23 20 0 11 -7 20 -15 20 -8 0 -15 -8 -15
-18z m0 -102 c0 -37 -2 -40 -19 -31 -26 15 -33 38 -15 56 25 24 34 18 34 -25z
m73 -112 c8 -12 7 -21 -2 -32 -23 -28 -41 -19 -41 20 0 28 4 35 16 32 9 -2 22
-10 27 -20z"/>
<path d="M289 799 c-48 -51 -32 -116 34 -144 42 -17 81 -2 108 41 57 93 -67
183 -142 103z m101 -19 c11 -11 20 -29 20 -40 0 -22 -33 -60 -53 -60 -27 0
-57 31 -57 60 0 18 8 34 22 44 30 21 44 20 68 -4z"/>
<path d="M1282 639 c-18 -6 -55 -31 -81 -57 -166 -160 -16 -436 208 -382 123
29 200 151 171 269 -32 134 -163 209 -298 170z m180 -64 c49 -33 78 -90 78
-155 0 -108 -73 -180 -184 -180 -85 0 -138 35 -171 112 -69 167 125 324 277
223z"/>
<path d="M1377 500 c-31 -23 -44 -27 -63 -20 -19 7 -29 4 -54 -16 -41 -35 -38
-59 14 -110 62 -63 84 -60 163 20 69 71 78 101 43 136 -28 28 -58 25 -103 -10z
m81 -12 c7 -7 12 -16 12 -21 0 -10 -118 -127 -128 -127 -14 0 -72 66 -72 82 0
28 28 33 54 9 l22 -21 44 45 c48 49 51 50 68 33z"/>
</g>
</svg>
