<?xml version="1.0" standalone="no"?>
<!DOCTYPE svg PUBLIC "-//W3C//DTD SVG 20010904//EN"
 "http://www.w3.org/TR/2001/REC-SVG-20010904/DTD/svg10.dtd">
<svg version="1.0" xmlns="http://www.w3.org/2000/svg"
 width="372.000000pt" height="375.000000pt" viewBox="0 0 372.000000 375.000000"
 preserveAspectRatio="xMidYMid meet">
<metadata>
Created by potrace 1.10, written by Peter Selinger 2001-2011
</metadata>
<g transform="translate(0.000000,375.000000) scale(0.100000,-0.100000)"
fill="#000000" stroke="none">
<path d="M1051 3679 c-222 -43 -430 -195 -529 -387 -84 -161 -96 -233 -96
-577 0 -331 9 -382 98 -559 48 -96 177 -231 274 -289 35 -20 66 -37 69 -37 3
0 19 -6 36 -14 97 -43 140 -51 292 -51 116 0 164 4 210 18 82 25 213 90 266
132 24 19 47 31 52 26 4 -4 4 -57 -1 -117 -7 -82 -6 -131 4 -199 13 -83 37
-179 54 -215 4 -8 18 -37 31 -65 12 -27 26 -54 31 -60 123 -157 124 -162 61
-267 -21 -34 -44 -74 -51 -88 -6 -14 -16 -32 -22 -40 -22 -33 -152 -255 -176
-299 -13 -25 -36 -65 -50 -89 -28 -48 -29 -99 -2 -116 17 -10 56 -6 298 29
100 14 114 11 126 -28 10 -36 74 -201 84 -219 6 -10 10 -23 10 -31 0 -7 11
-29 25 -50 30 -43 61 -48 92 -14 17 19 105 162 127 207 4 8 12 24 19 35 7 12
39 68 73 125 34 58 71 121 82 140 11 19 31 54 43 78 14 25 29 42 38 40 8 -2
46 -57 84 -123 38 -66 104 -178 146 -250 96 -163 96 -164 116 -201 23 -45 53
-74 76 -74 24 0 69 42 69 65 0 8 4 23 9 33 5 9 26 60 46 112 48 123 64 158 74
164 8 5 106 -7 266 -34 101 -17 134 -14 146 14 7 14 9 35 6 48 -6 20 -73 142
-128 233 -11 17 -22 37 -26 45 -3 8 -40 71 -80 138 -40 68 -73 128 -73 132 0
5 -6 15 -12 22 -7 7 -24 32 -36 56 -25 45 -22 60 20 103 23 23 118 172 118
185 0 6 7 25 15 42 9 17 27 75 40 129 40 161 33 344 -21 505 -17 52 -99 218
-112 228 -4 3 -25 28 -47 55 -22 28 -51 61 -65 74 -39 37 -181 141 -193 141
-6 0 -18 6 -26 14 -22 18 -142 62 -226 81 -137 32 -344 19 -485 -31 -105 -37
-303 -159 -318 -196 -2 -4 -10 -8 -18 -8 -12 0 -14 50 -14 313 0 321 -4 359
-46 482 -30 92 -94 187 -186 277 -73 71 -104 94 -180 131 -51 24 -106 49 -123
55 -84 30 -285 41 -384 21z m314 -124 c221 -58 398 -234 471 -470 17 -53 19
-95 19 -360 0 -329 -3 -348 -67 -481 -80 -164 -230 -290 -413 -346 -79 -24
-263 -25 -343 -2 -215 62 -383 221 -457 432 -24 71 -35 241 -30 477 5 281 18
332 112 477 82 125 206 218 358 267 77 25 263 28 350 6z m1447 -1044 c140 -36
262 -106 361 -208 125 -129 179 -231 217 -412 24 -111 24 -149 5 -261 -64
-365 -356 -636 -713 -659 -148 -10 -261 7 -369 55 -17 8 -34 14 -37 14 -4 0
-12 5 -19 10 -7 6 -37 28 -68 48 -94 61 -129 93 -188 172 -81 107 -85 115
-126 235 -35 102 -37 116 -38 234 0 146 16 226 71 341 163 344 540 524 904
431z m-709 -1503 c42 -30 63 -43 117 -68 25 -11 53 -25 62 -30 26 -14 168 -50
199 -50 37 0 59 -9 59 -26 0 -7 -18 -44 -41 -80 -22 -37 -45 -77 -50 -88 -5
-12 -13 -28 -19 -36 -29 -43 -150 -255 -155 -271 -4 -11 -11 -19 -16 -19 -5 0
-9 -7 -9 -15 0 -17 -35 -55 -50 -55 -5 0 -13 15 -19 33 -18 60 -76 203 -91
225 -20 29 -35 30 -183 8 -86 -13 -131 -16 -138 -9 -7 7 11 45 54 119 35 60
96 164 136 231 39 67 71 126 71 131 0 10 15 20 33 21 5 1 23 -9 40 -21z m1102
3 c4 -15 117 -213 155 -271 5 -8 28 -49 51 -90 23 -41 48 -80 55 -87 7 -8 10
-21 7 -29 -6 -17 -55 -15 -207 12 -102 18 -114 11 -151 -88 -52 -138 -73 -183
-86 -183 -11 0 -98 135 -130 200 -5 11 -18 34 -29 50 -11 17 -24 39 -29 50 -5
11 -38 70 -75 130 -36 61 -66 118 -66 127 0 19 12 23 85 33 101 13 242 69 335
134 52 35 76 39 85 12z"/>
<path d="M2500 2384 c-48 -10 -96 -26 -160 -57 -174 -82 -296 -231 -345 -420
-20 -77 -19 -238 1 -319 50 -195 185 -351 374 -431 132 -57 303 -66 432 -23
109 36 183 79 256 150 63 60 142 166 142 190 0 6 4 16 9 21 5 6 17 37 27 70
26 82 26 297 1 370 -75 218 -189 334 -422 431 -40 16 -258 29 -315 18z m267
-130 c170 -50 305 -185 358 -361 19 -63 19 -223 0 -288 -58 -191 -202 -324
-402 -370 -80 -19 -114 -19 -202 0 -247 52 -430 272 -431 519 0 186 136 395
310 474 116 52 245 61 367 26z"/>
<path d="M2755 1960 c-14 -23 -30 -51 -35 -64 -20 -54 -104 -217 -116 -227
-17 -14 -24 -11 -99 46 -139 104 -163 113 -191 71 -27 -42 -14 -66 61 -123 39
-29 82 -62 96 -73 55 -42 95 -70 122 -85 26 -15 31 -15 52 -1 26 17 225 407
225 442 0 31 -26 54 -61 54 -23 0 -34 -8 -54 -40z"/>
<path d="M500 1603 c-57 -9 -164 -58 -218 -97 -68 -51 -147 -134 -164 -173 -7
-15 -17 -35 -23 -43 -6 -8 -17 -33 -23 -55 -6 -22 -17 -58 -24 -80 -15 -53
-22 -995 -7 -1042 5 -17 17 -34 25 -37 21 -8 1857 -8 1877 0 34 13 33 86 -1
99 -9 3 -409 6 -888 6 -852 -1 -871 -1 -888 18 -17 19 -18 50 -14 473 4 445 5
454 28 513 41 107 101 181 192 238 119 75 85 71 662 74 360 2 523 7 533 14 18
15 16 64 -3 83 -14 14 -74 16 -527 15 -282 -1 -523 -4 -537 -6z"/>
</g>
</svg>
