<?xml version="1.0" standalone="no"?>
<!DOCTYPE svg PUBLIC "-//W3C//DTD SVG 20010904//EN"
 "http://www.w3.org/TR/2001/REC-SVG-20010904/DTD/svg10.dtd">
<svg version="1.0" xmlns="http://www.w3.org/2000/svg"
 width="384.000000pt" height="384.000000pt" viewBox="0 0 384.000000 384.000000"
 preserveAspectRatio="xMidYMid meet">
<metadata>
Created by potrace 1.10, written by Peter Selinger 2001-2011
</metadata>
<g transform="translate(0.000000,384.000000) scale(0.100000,-0.100000)"
fill="#000000" stroke="none">
<path d="M1878 3743 c-8 -10 -46 -82 -84 -160 -50 -102 -76 -144 -94 -153 -14
-6 -61 -16 -105 -21 -208 -23 -276 -48 -261 -96 4 -11 61 -73 127 -138 l121
-118 -5 -51 c-5 -52 -17 -120 -42 -236 -13 -60 -13 -67 4 -90 10 -14 25 -26
34 -28 15 -3 88 31 237 109 37 19 70 29 100 29 30 0 63 -10 100 -29 228 -120
243 -124 273 -77 13 19 13 29 1 76 -8 30 -14 68 -14 85 0 16 -7 55 -15 85 -30
113 -29 115 105 246 66 64 122 126 126 137 15 48 -53 73 -261 96 -44 5 -91 15
-105 21 -18 9 -44 51 -94 153 -74 153 -90 177 -116 177 -9 0 -24 -8 -32 -17z
m114 -313 c21 -41 44 -81 53 -89 8 -8 61 -24 117 -36 l103 -20 3 -32 c3 -28
-5 -40 -72 -104 -84 -79 -86 -84 -60 -181 8 -33 14 -74 12 -92 -3 -26 -8 -32
-32 -34 -29 -4 -96 20 -126 44 -8 6 -31 17 -51 24 -34 12 -40 11 -113 -29 -59
-32 -87 -41 -114 -39 -33 3 -37 6 -40 34 -2 18 4 59 12 92 26 97 24 102 -60
181 -67 64 -75 76 -72 104 l3 32 101 20 c56 11 109 26 117 34 9 7 32 46 52 86
20 40 38 75 40 77 3 2 24 4 47 3 42 -1 42 -1 80 -75z"/>
<path d="M363 3014 l-26 -26 7 -171 c4 -101 3 -178 -3 -186 -5 -8 -69 -59
-143 -115 -84 -64 -134 -109 -136 -122 -4 -25 26 -53 70 -64 18 -5 65 -18 103
-30 39 -12 89 -25 112 -30 50 -11 93 -37 93 -56 0 -7 6 -28 14 -46 17 -41 35
-93 46 -133 37 -132 81 -174 126 -122 11 12 56 77 100 144 64 98 84 122 108
127 16 3 92 6 170 6 123 0 145 3 174 20 18 11 35 27 38 35 3 8 -14 39 -40 72
-163 205 -166 209 -166 257 0 25 6 63 14 83 7 21 21 65 31 98 10 33 24 75 31
93 19 45 18 55 -11 82 -24 23 -25 23 -72 7 -57 -19 -108 -38 -183 -68 -99 -39
-121 -38 -203 17 -40 26 -97 66 -127 88 -94 70 -97 70 -127 40z m258 -250 c67
-51 74 -52 169 -15 74 28 126 28 133 -1 7 -24 -8 -109 -23 -138 -21 -39 -11
-80 33 -138 56 -73 67 -94 67 -130 l0 -29 -105 -5 c-121 -5 -124 -7 -187 -105
l-41 -63 -48 0 c-45 0 -49 2 -55 28 -6 28 -28 89 -48 131 -12 26 -56 48 -156
79 -62 19 -65 21 -68 54 -3 31 2 37 64 82 116 86 117 87 110 188 -5 70 -3 90
10 102 26 26 78 12 145 -40z"/>
<path d="M3405 3026 c-11 -6 -44 -29 -75 -52 -30 -22 -87 -62 -127 -88 -82
-55 -104 -56 -203 -17 -75 30 -126 49 -183 68 -47 16 -48 16 -72 -7 -29 -27
-30 -37 -11 -82 7 -18 21 -60 31 -93 10 -33 24 -77 31 -98 8 -20 14 -58 14
-83 0 -48 -3 -52 -166 -257 -25 -32 -43 -64 -40 -72 2 -8 17 -22 32 -32 23
-15 57 -19 200 -23 168 -5 172 -6 193 -30 11 -14 20 -29 21 -34 0 -4 14 -25
30 -46 17 -21 30 -41 30 -45 0 -4 14 -24 30 -45 17 -21 30 -42 30 -47 0 -15
45 -53 62 -53 30 0 62 52 88 145 11 40 29 92 46 133 8 18 14 39 14 46 0 19 43
45 93 56 23 5 74 18 112 30 39 12 85 25 103 30 44 11 74 39 70 64 -2 13 -52
58 -136 122 -74 56 -138 107 -143 115 -6 8 -7 83 -3 180 7 172 3 199 -34 218
-11 5 -24 4 -37 -3z m-55 -227 c5 -7 6 -51 3 -98 -6 -100 -5 -102 111 -187 62
-45 67 -51 64 -82 -3 -33 -6 -35 -68 -54 -100 -31 -144 -53 -156 -79 -20 -42
-42 -103 -48 -131 -6 -26 -10 -28 -55 -28 l-48 0 -41 63 c-63 98 -66 100 -187
105 l-105 5 0 29 c0 36 11 57 68 131 49 65 50 75 17 191 -23 81 -15 106 33
106 20 0 62 -10 92 -21 95 -37 102 -36 167 13 32 25 65 47 73 50 24 9 72 1 80
-13z"/>
<path d="M1879 2361 l-29 -29 0 -247 0 -248 -52 -84 c-29 -46 -57 -91 -63
-101 -32 -56 -66 -89 -141 -138 -66 -43 -91 -54 -123 -54 l-41 0 0 46 c0 37
-5 51 -29 75 l-29 29 -302 0 -302 0 -29 -29 -29 -29 0 -722 0 -722 29 -29 29
-29 299 0 c248 0 303 3 319 15 25 19 112 19 157 0 31 -13 128 -15 664 -14 712
0 677 -4 763 82 32 32 52 64 65 102 19 53 19 58 2 104 -9 27 -17 71 -17 97 1
40 6 54 29 77 15 15 36 52 47 82 18 53 18 58 1 104 -9 27 -17 71 -17 97 1 40
6 54 28 76 31 30 68 127 59 155 -16 51 -35 95 -45 105 -16 16 -15 103 1 117 8
6 22 35 32 66 19 54 19 56 0 110 -12 36 -34 71 -63 100 -78 80 -76 79 -437 85
l-320 5 -6 230 c-7 252 -14 291 -67 374 -50 77 -116 121 -231 155 -81 24 -117
21 -152 -13z m202 -112 c46 -14 91 -60 113 -117 13 -36 16 -86 16 -313 l0
-271 29 -29 29 -29 362 0 362 0 29 -29 c26 -26 29 -36 29 -91 0 -55 -3 -65
-29 -91 -29 -29 -30 -29 -149 -29 -106 0 -122 -2 -146 -21 -33 -26 -33 -52 0
-78 24 -19 40 -21 146 -21 119 0 120 0 149 -29 26 -26 29 -36 29 -91 0 -55 -3
-65 -29 -91 -29 -29 -30 -29 -149 -29 -106 0 -122 -2 -146 -21 -14 -11 -26
-29 -26 -39 0 -10 12 -28 26 -39 23 -18 41 -21 116 -21 86 0 91 -1 119 -29 26
-26 29 -36 29 -91 0 -55 -3 -65 -29 -91 -28 -28 -33 -29 -119 -29 -75 0 -93
-3 -116 -21 -58 -45 -11 -99 86 -99 52 0 63 -3 89 -29 26 -26 29 -36 29 -91 0
-55 -3 -65 -29 -91 l-29 -29 -662 0 c-649 0 -663 0 -699 20 -20 12 -46 36 -58
55 l-23 35 0 504 0 504 34 26 c19 14 37 26 39 26 3 0 55 34 117 75 62 41 115
75 119 75 11 0 51 47 51 61 0 7 6 20 13 28 8 9 48 73 90 142 l77 127 0 199 c0
110 3 203 7 206 10 11 62 8 104 -4z m-776 -1419 l0 -655 -235 0 -235 0 -3 645
c-1 355 0 651 3 658 3 10 56 12 237 10 l233 -3 0 -655z"/>
<path d="M1037 372 c-10 -10 -17 -24 -17 -30 0 -18 33 -52 50 -52 18 0 50 34
50 54 0 17 -32 46 -52 46 -8 0 -22 -8 -31 -18z"/>
</g>
</svg>
